# xmcd
#
# Track frame offsets:
# 150
# 17386
# 55074
# 77160
# 103022
# 118814
# 144187
# 159417
# 178442
# 198210
# 211296
#
# Disc length: 3019 seconds
#
#
# Revision: 0
# Processed by: cddbd v1.5.2PL0 Copyright (c) Steve Scherf et al.
# Submitted via: FreeRIP 2.96 
#
DISCID=8e0bc90b
DTITLE=The Streamliners - under the moondogs
DYEAR=2006
DGENRE=Blues
TTITLE0=moon dogs
TTITLE1=raw deal
TTITLE2=dark bill
TTITLE3=here I am
TTITLE4=colour my soul
TTITLE5=irises
TTITLE6=monkey man
TTITLE7=benny
TTITLE8=lil' easy
TTITLE9=rollin' with the devil
TTITLE10=getting louder
EXTD=The Crow
EXTT0=
EXTT1=
EXTT2=
EXTT3=
EXTT4=
EXTT5=
EXTT6=
EXTT7=
EXTT8=
EXTT9=
EXTT10=
PLAYORDER=
